<?xml version="1.0" encoding="utf-8"?>
<!-- Generator: Adobe Illustrator 17.0.0, SVG Export Plug-In . SVG Version: 6.00 Build 0)  -->
<!DOCTYPE svg PUBLIC "-//W3C//DTD SVG 1.1//EN" "http://www.w3.org/Graphics/SVG/1.1/DTD/svg11.dtd">
<svg version="1.1" id="圖層_1" xmlns="http://www.w3.org/2000/svg" xmlns:xlink="http://www.w3.org/1999/xlink" x="0px" y="0px"
	 width="1422px" height="1603px" viewBox="0 0 1422 1603" enable-background="new 0 0 1422 1603" xml:space="preserve">
<rect x="93.358" y="106.675" fill="#E60012" width="758.725" height="270.551"/>
<g>
	<g>
		<g enable-background="new    ">
			<g enable-background="new    ">
				<defs>
					<path id="SVGID_1_" enable-background="new    " d="M558.752,1345.165v51.961c0,66.825-108.342,121.001-242.001,121.001
						c-133.65,0-242.001-54.176-242.001-121.001v-51.961c0,66.824,108.351,121,242.001,121
						C450.41,1466.165,558.752,1411.989,558.752,1345.165z"/>
				</defs>
				<clipPath id="SVGID_2_">
					<use xlink:href="#SVGID_1_"  overflow="visible"/>
				</clipPath>
				<g clip-path="url(#SVGID_2_)" enable-background="new    ">
					<path fill="#005D87" d="M558.752,1345.165v51.961c0,0.475-0.006,0.948-0.017,1.421v-51.962
						C558.746,1346.112,558.752,1345.639,558.752,1345.165"/>
					<path fill="#00608C" d="M558.735,1346.585v51.962c-0.081,3.517-0.462,6.996-1.13,10.435v-51.962
						C558.273,1353.582,558.654,1350.102,558.735,1346.585"/>
					<path fill="#006390" d="M557.606,1357.02v51.962c-0.652,3.352-1.578,6.664-2.766,9.931v-51.962
						C556.027,1363.685,556.953,1360.372,557.606,1357.02"/>
					<path fill="#006695" d="M554.84,1366.95v51.962c-1.193,3.284-2.653,6.521-4.366,9.707v-51.962
						C552.187,1373.472,553.646,1370.234,554.84,1366.95"/>
					<path fill="#006A9A" d="M550.474,1376.657v51.962c-1.774,3.302-3.821,6.547-6.129,9.73v-51.962
						c2.308-3.184,4.354-6.429,6.13-9.73"/>
					<path fill="#006D9E" d="M544.345,1386.388v51.962c-2.474,3.413-5.245,6.756-8.301,10.019v-51.962
						C539.1,1393.144,541.871,1389.802,544.345,1386.388"/>
					<path fill="#0070A3" d="M536.044,1396.406v51.962c-3.419,3.651-7.192,7.204-11.297,10.646v-51.961
						C528.852,1403.61,532.625,1400.059,536.044,1396.406"/>
					<path fill="#0073A8" d="M524.747,1407.053v51.961c-5.07,4.251-10.646,8.333-16.687,12.226v-51.961
						C514.101,1415.386,519.677,1411.304,524.747,1407.053"/>
					<path fill="#0076AC" d="M508.06,1419.278v51.961c-9.892,6.374-21.029,12.24-33.229,17.508v-51.961
						C487.03,1431.519,498.168,1425.652,508.06,1419.278"/>
					<path fill="#007AB1" d="M474.83,1436.786v51.961c-13.978,6.035-29.351,11.283-45.844,15.607v-51.961
						C445.479,1448.068,460.853,1442.82,474.83,1436.786"/>
					<path fill="#0076AC" d="M428.986,1452.394v51.961c-13.897,3.645-28.59,6.633-43.915,8.883v-51.961
						C400.397,1459.025,415.089,1456.037,428.986,1452.394"/>
					<path fill="#0073A8" d="M385.071,1461.276v51.961c-9.337,1.371-18.908,2.469-28.677,3.273v-51.961
						C366.163,1463.745,375.734,1462.647,385.071,1461.276"/>
					<path fill="#0070A3" d="M356.395,1464.55v51.961c-7.82,0.645-15.767,1.102-23.822,1.361v-51.961
						C340.627,1465.651,348.574,1465.194,356.395,1464.55"/>
					<path fill="#006D9E" d="M332.572,1465.911v51.961c-5.23,0.169-10.506,0.255-15.821,0.255c-2.081,0-4.155-0.014-6.223-0.039
						v-51.962c2.067,0.026,4.142,0.039,6.223,0.039C322.066,1466.165,327.342,1466.079,332.572,1465.911"/>
					<path fill="#006A9A" d="M310.528,1466.126v51.962c-6.961-0.088-13.849-0.323-20.651-0.699v-51.961
						C296.68,1465.804,303.567,1466.038,310.528,1466.126"/>
					<path fill="#006695" d="M289.877,1465.428v51.961c-6.677-0.368-13.272-0.873-19.774-1.508v-51.962
						C276.605,1464.554,283.2,1465.059,289.877,1465.428"/>
					<path fill="#006390" d="M270.103,1463.919v51.962c-6.565-0.642-13.035-1.415-19.398-2.315v-51.962
						C257.068,1462.504,263.538,1463.278,270.103,1463.919"/>
					<path fill="#00608C" d="M250.705,1461.604v51.962c-6.623-0.938-13.131-2.013-19.51-3.219v-51.961
						C237.574,1459.592,244.082,1460.666,250.705,1461.604"/>
					<path fill="#005D87" d="M231.195,1458.386v51.961c-6.87-1.298-13.592-2.748-20.147-4.343v-51.962
						C217.604,1455.637,224.325,1457.087,231.195,1458.386"/>
					<path fill="#005A82" d="M211.048,1454.042v51.962c-7.37-1.792-14.531-3.766-21.46-5.91v-51.961
						C196.517,1450.276,203.678,1452.25,211.048,1454.042"/>
					<path fill="#00567E" d="M189.588,1448.133v51.961c-8.872-2.745-17.363-5.769-25.424-9.047v-51.962
						C172.225,1442.363,180.716,1445.388,189.588,1448.133"/>
					<path fill="#005379" d="M164.164,1439.085v51.962c-54.559-22.187-89.414-56.019-89.414-93.921v-51.961
						C74.75,1383.066,109.605,1416.899,164.164,1439.085"/>
				</g>
			</g>
			<g>
				<path fill="#0084C1" d="M316.751,1224.164c133.659,0,242.001,54.176,242.001,121.001c0,66.824-108.342,121-242.001,121
					c-133.65,0-242.001-54.176-242.001-121C74.75,1278.34,183.101,1224.164,316.751,1224.164z"/>
			</g>
		</g>
	</g>
</g>
<g>
	<g>
		<g>
			<g enable-background="new    ">
				<g enable-background="new    ">
					<defs>
						<path id="SVGID_3_" enable-background="new    " d="M1303.614,1351.163v51.961c0,66.825-108.342,121.001-242.001,121.001
							c-133.65,0-242.001-54.176-242.001-121.001v-51.961c0,66.824,108.351,121,242.001,121
							C1195.272,1472.163,1303.614,1417.987,1303.614,1351.163z"/>
					</defs>
					<clipPath id="SVGID_4_">
						<use xlink:href="#SVGID_3_"  overflow="visible"/>
					</clipPath>
					<g clip-path="url(#SVGID_4_)" enable-background="new    ">
						<path fill="#005D87" d="M1303.614,1351.163v51.961c0,0.475-0.006,0.948-0.017,1.421v-51.962
							C1303.608,1352.11,1303.614,1351.637,1303.614,1351.163"/>
						<path fill="#00608C" d="M1303.598,1352.583v51.962c-0.081,3.517-0.462,6.996-1.13,10.435v-51.962
							C1303.136,1359.58,1303.517,1356.1,1303.598,1352.583"/>
						<path fill="#006390" d="M1302.468,1363.018v51.962c-0.652,3.352-1.578,6.664-2.766,9.931v-51.962
							C1300.89,1369.683,1301.815,1366.37,1302.468,1363.018"/>
						<path fill="#006695" d="M1299.702,1372.948v51.962c-1.193,3.284-2.653,6.521-4.366,9.707v-51.962
							C1297.049,1379.47,1298.509,1376.232,1299.702,1372.948"/>
						<path fill="#006A9A" d="M1295.336,1382.655v51.962c-1.774,3.302-3.821,6.547-6.129,9.73v-51.962
							C1291.515,1389.202,1293.562,1385.957,1295.336,1382.655"/>
						<path fill="#006D9E" d="M1289.207,1392.386v51.962c-2.474,3.413-5.245,6.756-8.301,10.019v-51.962
							C1283.962,1399.142,1286.733,1395.8,1289.207,1392.386"/>
						<path fill="#0070A3" d="M1280.906,1402.404v51.962c-3.419,3.651-7.192,7.204-11.297,10.646v-51.961
							C1273.714,1409.608,1277.487,1406.057,1280.906,1402.404"/>
						<path fill="#0073A8" d="M1269.609,1413.051v51.961c-5.07,4.251-10.646,8.333-16.688,12.226v-51.961
							C1258.963,1421.384,1264.539,1417.302,1269.609,1413.051"/>
						<path fill="#0076AC" d="M1252.922,1425.276v51.961c-9.892,6.374-21.029,12.24-33.229,17.508v-51.961
							C1231.893,1437.517,1243.03,1431.65,1252.922,1425.276"/>
						<path fill="#007AB1" d="M1219.692,1442.784v51.961c-13.978,6.035-29.351,11.283-45.844,15.607v-51.961
							C1190.342,1454.066,1205.715,1448.818,1219.692,1442.784"/>
						<path fill="#0076AC" d="M1173.849,1458.392v51.961c-13.897,3.645-28.59,6.633-43.915,8.883v-51.961
							C1145.259,1465.023,1159.951,1462.035,1173.849,1458.392"/>
						<path fill="#0073A8" d="M1129.934,1467.274v51.961c-9.337,1.371-18.908,2.469-28.677,3.273v-51.961
							C1111.025,1469.743,1120.597,1468.646,1129.934,1467.274"/>
						<path fill="#0070A3" d="M1101.257,1470.548v51.961c-7.82,0.645-15.768,1.102-23.822,1.361v-51.961
							C1085.489,1471.649,1093.437,1471.192,1101.257,1470.548"/>
						<path fill="#006D9E" d="M1077.435,1471.909v51.961c-5.23,0.169-10.506,0.255-15.821,0.255c-2.081,0-4.155-0.014-6.223-0.039
							v-51.962c2.067,0.026,4.142,0.039,6.223,0.039C1066.929,1472.163,1072.204,1472.077,1077.435,1471.909"/>
						<path fill="#006A9A" d="M1055.391,1472.124v51.962c-6.961-0.088-13.849-0.323-20.651-0.699v-51.961
							C1041.542,1471.802,1048.43,1472.036,1055.391,1472.124"/>
						<path fill="#006695" d="M1034.739,1471.426v51.961c-6.677-0.368-13.271-0.873-19.773-1.508v-51.962
							C1021.468,1470.552,1028.062,1471.057,1034.739,1471.426"/>
						<path fill="#006390" d="M1014.966,1469.917v51.962c-6.565-0.642-13.035-1.415-19.398-2.315v-51.962
							C1001.931,1468.502,1008.4,1469.276,1014.966,1469.917"/>
						<path fill="#00608C" d="M995.567,1467.602v51.962c-6.623-0.938-13.131-2.013-19.51-3.219v-51.961
							C982.437,1465.59,988.944,1466.664,995.567,1467.602"/>
						<path fill="#005D87" d="M976.058,1464.384v51.961c-6.87-1.298-13.592-2.748-20.147-4.343v-51.962
							C962.466,1461.635,969.188,1463.085,976.058,1464.384"/>
						<path fill="#005A82" d="M955.91,1460.04v51.962c-7.37-1.792-14.531-3.766-21.46-5.91v-51.961
							C941.379,1456.274,948.54,1458.248,955.91,1460.04"/>
						<path fill="#00567E" d="M934.45,1454.131v51.961c-8.872-2.745-17.363-5.769-25.424-9.047v-51.962
							C917.087,1448.361,925.578,1451.386,934.45,1454.131"/>
						<path fill="#005379" d="M909.026,1445.083v51.962c-54.559-22.187-89.414-56.019-89.414-93.921v-51.961
							C819.612,1389.064,854.468,1422.897,909.026,1445.083"/>
					</g>
				</g>
				<g>
					<path fill="#0084C1" d="M1061.613,1230.162c133.659,0,242.001,54.176,242.001,121.001c0,66.824-108.342,121-242.001,121
						c-133.65,0-242.001-54.176-242.001-121C819.612,1284.338,927.963,1230.162,1061.613,1230.162z"/>
				</g>
			</g>
		</g>
	</g>
	<g>
		<polygon fill="#FFFFFF" points="1233.996,1364.711 1232.663,1307.377 1197.996,1280.044 1131.996,1249.377 1026.663,1247.377 
			949.996,1262.044 894.663,1297.377 894.663,1362.711 915.996,1410.044 1003.996,1440.711 1081.33,1457.377 1107.996,1444.044 
			1183.996,1412.711 		"/>
		<g>
			<g>
				<rect x="1017.616" y="1261.308" fill="#0075AA" width="88.003" height="4.33"/>
			</g>
			<g>
				<polygon fill="#0081BB" points="1200.2,1298.577 1200.2,1302.907 1105.619,1350.198 1105.619,1345.867 				"/>
			</g>
			<g>
				<polygon fill="#005880" points="1017.616,1345.867 1017.616,1350.198 923.036,1302.907 923.036,1298.577 				"/>
			</g>
			<g>
				<polygon fill="#005075" points="1200.227,1360.789 1200.227,1365.119 1200.2,1302.907 1200.2,1298.577 				"/>
			</g>
			<g>
				<polygon fill="#005C87" points="923.036,1298.577 923.036,1302.907 923.001,1365.119 923.001,1360.789 				"/>
			</g>
			<g>
				<path fill="#0084C1" d="M1061.617,1229.952c133.65,0,242.002,54.175,242.002,121.001c0,66.829-108.352,121-242.002,121
					c-133.657,0-242.001-54.171-242.001-121C819.616,1284.127,927.96,1229.952,1061.617,1229.952z M1061.608,1430.089l138.618-69.3
					l-0.026-62.212l-94.581,47.29v-84.56h-88.003v84.56l-94.58-47.29l-0.035,62.212L1061.608,1430.089"/>
			</g>
		</g>
	</g>
</g>
<g>
	<g>
		<g>
			<g enable-background="new    ">
				<g enable-background="new    ">
					<defs>
						<path id="SVGID_5_" enable-background="new    " d="M1314.752,532.14v51.961c0,66.83-108.342,121.001-242.001,121.001
							c-133.65,0-242.001-54.171-242.001-121.001V532.14c0,66.829,108.351,121,242.001,121
							C1206.41,653.14,1314.752,598.969,1314.752,532.14z"/>
					</defs>
					<clipPath id="SVGID_6_">
						<use xlink:href="#SVGID_5_"  overflow="visible"/>
					</clipPath>
					<g clip-path="url(#SVGID_6_)" enable-background="new    ">
						<path fill="#85000A" d="M1314.752,532.14v51.961c0,0.475-0.006,0.948-0.017,1.421V533.56
							C1314.746,533.087,1314.752,532.613,1314.752,532.14"/>
						<path fill="#8A000B" d="M1314.735,533.56v51.961c-0.081,3.517-0.462,6.997-1.13,10.435v-51.961
							C1314.273,540.558,1314.654,537.077,1314.735,533.56"/>
						<path fill="#8F000B" d="M1313.605,543.996v51.961c-0.652,3.353-1.578,6.665-2.766,9.932v-51.961
							C1312.027,550.661,1312.953,547.349,1313.605,543.996"/>
						<path fill="#93000C" d="M1310.84,553.928v51.961c-1.194,3.284-2.653,6.522-4.366,9.708v-51.962
							C1308.187,560.449,1309.646,557.211,1310.84,553.928"/>
						<path fill="#98000C" d="M1306.474,563.635v51.962c-1.775,3.301-3.822,6.547-6.13,9.729v-51.961
							C1302.651,570.182,1304.698,566.937,1306.474,563.635"/>
						<path fill="#9C000C" d="M1300.344,573.365v51.961c-2.473,3.414-5.245,6.756-8.3,10.02v-51.962
							C1295.099,580.121,1297.871,576.779,1300.344,573.365"/>
						<path fill="#A1000D" d="M1292.044,583.384v51.962c-3.419,3.651-7.192,7.203-11.297,10.644v-51.961
							C1284.852,590.588,1288.625,587.035,1292.044,583.384"/>
						<path fill="#A6000D" d="M1280.747,594.029v51.961c-5.069,4.251-10.646,8.333-16.687,12.226v-51.962
							C1270.102,602.361,1275.678,598.279,1280.747,594.029"/>
						<path fill="#AA000D" d="M1264.061,606.254v51.962c-9.891,6.374-21.028,12.239-33.229,17.507v-51.962
							C1243.032,618.494,1254.17,612.628,1264.061,606.254"/>
						<path fill="#AF000E" d="M1230.832,623.761v51.962c-13.977,6.034-29.348,11.281-45.84,15.606v-51.962
							C1201.484,635.043,1216.855,629.795,1230.832,623.761"/>
						<path fill="#AA000D" d="M1184.992,639.367v51.962c-13.898,3.644-28.592,6.633-43.917,8.883v-51.961
							C1156.4,646,1171.094,643.012,1184.992,639.367"/>
						<path fill="#A6000D" d="M1141.075,648.251v51.961c-9.337,1.371-18.909,2.469-28.678,3.273v-51.961
							C1122.166,650.719,1131.738,649.622,1141.075,648.251"/>
						<path fill="#A1000D" d="M1112.397,651.524v51.961c-7.821,0.644-15.77,1.102-23.824,1.361v-51.961
							C1096.628,652.625,1104.576,652.169,1112.397,651.524"/>
						<path fill="#9C000C" d="M1088.573,652.886v51.961c-5.23,0.169-10.507,0.255-15.822,0.255c-2.081,0-4.155-0.014-6.224-0.039
							v-51.962c2.068,0.026,4.143,0.039,6.224,0.039C1078.066,653.14,1083.343,653.055,1088.573,652.886"/>
						<path fill="#98000C" d="M1066.527,653.101v51.962c-6.961-0.088-13.85-0.323-20.652-0.699v-51.961
							C1052.678,652.778,1059.566,653.013,1066.527,653.101"/>
						<path fill="#93000C" d="M1045.875,652.402v51.961c-6.677-0.368-13.272-0.873-19.774-1.508v-51.962
							C1032.603,651.528,1039.198,652.033,1045.875,652.402"/>
						<path fill="#8F000B" d="M1026.101,650.894v51.962c-6.565-0.642-13.036-1.415-19.399-2.316v-51.962
							C1013.065,649.479,1019.535,650.253,1026.101,650.894"/>
						<path fill="#8A000B" d="M1006.701,648.578v51.962c-6.623-0.938-13.131-2.013-19.51-3.219V645.36
							C993.57,646.565,1000.078,647.641,1006.701,648.578"/>
						<path fill="#85000A" d="M987.191,645.36v51.961c-6.871-1.298-13.592-2.749-20.148-4.343l-0.001-51.962
							C973.6,642.611,980.32,644.062,987.191,645.36"/>
						<path fill="#81000A" d="M967.043,641.017v51.962c-7.369-1.792-14.53-3.766-21.459-5.91v-51.961
							C952.513,637.251,959.674,639.225,967.043,641.017"/>
						<path fill="#7C000A" d="M945.584,635.107v51.961c-8.872-2.745-17.363-5.769-25.424-9.047V626.06
							C928.221,629.338,936.712,632.362,945.584,635.107"/>
						<path fill="#780009" d="M920.16,626.06v51.961c-54.556-22.186-89.41-56.017-89.41-93.921V532.14
							C830.75,570.043,865.604,603.875,920.16,626.06"/>
					</g>
				</g>
				<g>
					<path fill="#BE000F" d="M1072.751,411.139c133.659,0,242.001,54.176,242.001,121.001c0,66.829-108.342,121-242.001,121
						c-133.65,0-242.001-54.171-242.001-121C830.75,465.315,939.101,411.139,1072.751,411.139z"/>
				</g>
			</g>
		</g>
	</g>
	<g>
		<polygon fill="#FFFFFF" points="1242.976,544.212 1241.643,486.878 1206.976,459.545 1140.976,428.878 1035.643,426.878 
			958.976,441.545 903.643,476.878 903.643,542.212 924.976,589.545 1012.976,620.212 1090.31,636.878 1116.976,623.545 
			1192.976,592.212 		"/>
		<g>
			<rect x="1028.751" y="443.382" fill="#A8000D" width="88.003" height="4.33"/>
		</g>
		<g>
			<polygon fill="#B9000E" points="1211.335,480.651 1211.335,484.981 1116.754,532.273 1116.754,527.941 			"/>
		</g>
		<g>
			<polygon fill="#7E000A" points="1028.751,527.941 1028.751,532.273 934.171,484.981 934.171,480.651 			"/>
		</g>
		<g>
			<polygon fill="#85000A" points="934.171,480.651 934.171,484.981 934.136,547.193 934.136,542.863 			"/>
		</g>
		<path fill="#BE000F" d="M1072.752,412.025c133.65,0,242.002,54.176,242.002,121.002c0,66.829-108.352,121-242.002,121
			c-133.657,0-242.001-54.171-242.001-121C830.751,466.201,939.095,412.025,1072.752,412.025z M1072.743,612.163l138.618-69.3
			l-0.026-62.212l-94.581,47.29v-84.56h-88.003v84.56l-94.58-47.29l-0.035,62.212L1072.743,612.163"/>
	</g>
</g>
<g>
	<g>
		<g>
			<g enable-background="new    ">
				<g enable-background="new    ">
					<defs>
						<path id="SVGID_7_" enable-background="new    " d="M558.752,532.14v51.961c0,66.83-108.342,121.001-242.001,121.001
							c-133.65,0-242.001-54.171-242.001-121.001V532.14c0,66.829,108.351,121,242.001,121
							C450.41,653.14,558.752,598.969,558.752,532.14z"/>
					</defs>
					<clipPath id="SVGID_8_">
						<use xlink:href="#SVGID_7_"  overflow="visible"/>
					</clipPath>
					<g clip-path="url(#SVGID_8_)" enable-background="new    ">
						<path fill="#85000A" d="M558.752,532.14v51.961c0,0.475-0.006,0.948-0.017,1.421V533.56
							C558.746,533.087,558.752,532.613,558.752,532.14"/>
						<path fill="#8A000B" d="M558.735,533.56v51.961c-0.081,3.517-0.462,6.997-1.13,10.435v-51.961
							C558.273,540.558,558.654,537.077,558.735,533.56"/>
						<path fill="#8F000B" d="M557.606,543.996v51.961c-0.652,3.353-1.578,6.665-2.766,9.932v-51.961
							C556.027,550.661,556.953,547.349,557.606,543.996"/>
						<path fill="#93000C" d="M554.84,553.928v51.961c-1.194,3.284-2.653,6.522-4.366,9.708v-51.962
							C552.187,560.449,553.646,557.211,554.84,553.928"/>
						<path fill="#98000C" d="M550.474,563.635v51.962c-1.775,3.301-3.822,6.547-6.13,9.729v-51.961
							C546.651,570.182,548.698,566.937,550.474,563.635"/>
						<path fill="#9C000C" d="M544.344,573.365v51.961c-2.473,3.414-5.245,6.756-8.3,10.02v-51.962
							C539.099,580.121,541.871,576.779,544.344,573.365"/>
						<path fill="#A1000D" d="M536.044,583.384v51.962c-3.419,3.651-7.192,7.203-11.297,10.644v-51.961
							C528.852,590.588,532.625,587.035,536.044,583.384"/>
						<path fill="#A6000D" d="M524.747,594.029v51.961c-5.069,4.251-10.645,8.333-16.687,12.226v-51.962
							C514.102,602.361,519.678,598.279,524.747,594.029"/>
						<path fill="#AA000D" d="M508.06,606.254v51.962c-9.891,6.374-21.028,12.239-33.228,17.507v-51.962
							C487.032,618.494,498.17,612.628,508.06,606.254"/>
						<path fill="#AF000E" d="M474.832,623.761v51.962c-13.977,6.034-29.348,11.281-45.84,15.606v-51.962
							C445.484,635.043,460.855,629.795,474.832,623.761"/>
						<path fill="#AA000D" d="M428.992,639.367v51.962c-13.898,3.644-28.592,6.633-43.917,8.883v-51.961
							C400.4,646,415.094,643.012,428.992,639.367"/>
						<path fill="#A6000D" d="M385.075,648.251v51.961c-9.337,1.371-18.909,2.469-28.678,3.273v-51.961
							C366.166,650.719,375.738,649.622,385.075,648.251"/>
						<path fill="#A1000D" d="M356.397,651.524v51.961c-7.821,0.644-15.77,1.102-23.824,1.361v-51.961
							C340.628,652.625,348.576,652.169,356.397,651.524"/>
						<path fill="#9C000C" d="M332.573,652.886v51.961c-5.23,0.169-10.507,0.255-15.822,0.255c-2.081,0-4.155-0.014-6.224-0.039
							v-51.962c2.068,0.026,4.143,0.039,6.224,0.039C322.066,653.14,327.343,653.055,332.573,652.886"/>
						<path fill="#98000C" d="M310.527,653.101v51.962c-6.961-0.088-13.85-0.323-20.652-0.699v-51.961
							C296.678,652.778,303.566,653.013,310.527,653.101"/>
						<path fill="#93000C" d="M289.875,652.402v51.961c-6.677-0.368-13.272-0.873-19.774-1.508v-51.962
							C276.603,651.528,283.198,652.033,289.875,652.402"/>
						<path fill="#8F000B" d="M270.101,650.894v51.962c-6.565-0.642-13.036-1.415-19.399-2.316v-51.962
							C257.065,649.479,263.535,650.253,270.101,650.894"/>
						<path fill="#8A000B" d="M250.701,648.578v51.962c-6.623-0.938-13.131-2.013-19.51-3.219V645.36
							C237.57,646.565,244.078,647.641,250.701,648.578"/>
						<path fill="#85000A" d="M231.191,645.36v51.961c-6.871-1.298-13.592-2.749-20.148-4.343l-0.001-51.962
							C217.6,642.611,224.32,644.062,231.191,645.36"/>
						<path fill="#81000A" d="M211.043,641.017v51.962c-7.369-1.792-14.53-3.766-21.459-5.91v-51.961
							C196.513,637.251,203.674,639.225,211.043,641.017"/>
						<path fill="#7C000A" d="M189.584,635.107v51.961c-8.872-2.745-17.363-5.769-25.424-9.047V626.06
							C172.221,629.338,180.712,632.362,189.584,635.107"/>
						<path fill="#780009" d="M164.16,626.06v51.961c-54.556-22.186-89.41-56.017-89.41-93.921V532.14
							C74.75,570.043,109.604,603.875,164.16,626.06"/>
					</g>
				</g>
				<g>
					<path fill="#BE000F" d="M316.751,411.139c133.659,0,242.001,54.176,242.001,121.001c0,66.829-108.342,121-242.001,121
						c-133.65,0-242.001-54.171-242.001-121C74.75,465.315,183.101,411.139,316.751,411.139z"/>
				</g>
			</g>
		</g>
	</g>
	<g>
		<polygon fill="#FFFFFF" points="152.738,516.544 154.071,573.878 188.738,601.211 254.738,631.878 360.071,633.878 
			436.738,619.211 492.071,583.878 492.071,518.544 470.738,471.211 382.738,440.544 305.404,423.878 278.738,437.211 
			202.738,468.544 		"/>
		<g>
			<polygon fill="#7E000A" points="455.361,510.618 455.361,514.948 316.763,445.648 316.763,441.318 			"/>
		</g>
		<g>
			<polygon fill="#B9000E" points="316.763,441.318 316.763,445.648 178.136,514.948 178.136,510.618 			"/>
		</g>
		<path fill="#BE000F" d="M316.752,409.953c133.65,0,242.002,54.176,242.002,121.002c0,66.829-108.352,121-242.002,121
			c-133.657,0-242.001-54.171-242.001-121C74.751,464.129,183.095,409.953,316.752,409.953z M455.335,572.831l0.026-62.213
			l-138.599-69.3l-138.627,69.3l0.035,62.213l94.58-47.29v84.56h88.003v-84.56L455.335,572.831"/>
	</g>
</g>
<g>
	<polygon fill="#FFFFFF" points="138.738,1331.568 140.071,1388.902 174.738,1416.235 240.738,1446.902 346.071,1448.902 
		422.738,1434.235 478.071,1398.902 478.071,1333.568 456.738,1286.235 368.738,1255.568 291.404,1238.902 264.738,1252.235 
		188.738,1283.568 	"/>
	<g>
		<polygon fill="#005880" points="455.361,1323.645 455.361,1327.975 316.763,1258.675 316.763,1254.345 		"/>
	</g>
	<g>
		<polygon fill="#0081BB" points="316.763,1254.345 316.763,1258.675 178.136,1327.975 178.136,1323.645 		"/>
	</g>
	<g>
		<path fill="#0084C1" d="M316.752,1222.979c133.65,0,242.002,54.175,242.002,121S450.402,1464.98,316.752,1464.98
			c-133.657,0-242.001-54.176-242.001-121.001S183.095,1222.979,316.752,1222.979z M455.335,1385.856l0.026-62.212l-138.599-69.3
			l-138.627,69.3l0.035,62.212l94.58-47.29v84.56h88.003v-84.56L455.335,1385.856"/>
	</g>
</g>
<g>
	<path fill="#FFFFFF" d="M164.909,163.873h10.771l-22.892,29.192v32.785h-9.095v-32.785l-22.893-29.192h10.711l16.587,21.367
		L164.909,163.873z"/>
	<path fill="#FFFFFF" d="M205.648,162.985c9.576,0,17.549,3.032,23.919,9.095c6.369,6.064,9.555,13.665,9.555,22.804
		c0,9.14-3.215,16.703-9.644,22.692c-6.429,5.989-14.534,8.984-24.317,8.984c-9.34,0-17.121-2.995-23.343-8.984
		c-6.222-5.989-9.332-13.493-9.332-22.515c0-9.257,3.132-16.918,9.398-22.981C188.15,166.018,196.072,162.985,205.648,162.985z
		 M206.003,171.415c-7.092,0-12.92,2.219-17.485,6.654c-4.565,4.437-6.849,10.101-6.849,16.992c0,6.685,2.29,12.244,6.871,16.681
		c4.579,4.436,10.312,6.655,17.197,6.655c6.914,0,12.684-2.263,17.309-6.788c4.624-4.525,6.937-10.159,6.937-16.902
		c0-6.566-2.312-12.09-6.937-16.57C218.421,173.655,212.74,171.415,206.003,171.415z"/>
	<path fill="#FFFFFF" d="M293.158,163.873h8.917v35.182c0,4.762-0.348,8.355-1.043,10.78c-0.695,2.426-1.553,4.444-2.573,6.056
		c-1.02,1.612-2.27,3.055-3.748,4.325c-4.91,4.23-11.329,6.345-19.255,6.345c-8.074,0-14.552-2.1-19.432-6.3
		c-1.48-1.301-2.729-2.758-3.749-4.37c-1.021-1.611-1.863-3.586-2.528-5.923c-0.666-2.336-0.998-6.004-0.998-11.002v-35.093h8.917
		v35.182c0,5.826,0.665,9.878,1.996,12.155c1.331,2.278,3.356,4.104,6.078,5.479c2.721,1.375,5.93,2.062,9.627,2.062
		c5.265,0,9.554-1.375,12.866-4.126c1.745-1.479,3.002-3.223,3.771-5.234c0.77-2.012,1.154-5.457,1.154-10.337V163.873z"/>
	<path fill="#FFFFFF" d="M350.302,163.519h6.235l27.79,62.332h-9.081l-8.261-18.367h-26.442l-7.744,18.367h-9.118L350.302,163.519z
		 M363.338,199.587l-9.999-22.449l-9.273,22.449H363.338z"/>
	<path fill="#FFFFFF" d="M391.382,225.851v-61.978h15.527c6.27,0,11.246,1.553,14.929,4.658c3.683,3.105,5.523,7.306,5.523,12.6
		c0,3.608-0.902,6.729-2.706,9.361c-1.805,2.633-4.393,4.599-7.764,5.9c1.98,1.302,3.918,3.076,5.811,5.323
		c1.893,2.248,4.555,6.167,7.985,11.757c2.159,3.52,3.889,6.167,5.19,7.941l3.283,4.437h-10.559l-2.703-4.084
		c-0.088-0.148-0.266-0.399-0.531-0.755l-1.729-2.441l-2.747-4.527l-2.968-4.838c-1.832-2.545-3.51-4.57-5.035-6.076
		c-1.524-1.506-2.902-2.591-4.131-3.255c-1.228-0.664-3.294-0.997-6.195-0.997h-2.31v26.974H391.382z M402.916,171.415h-2.661
		v19.565h3.371c4.496,0,7.579-0.384,9.25-1.153c1.671-0.769,2.973-1.93,3.904-3.482c0.932-1.553,1.397-3.319,1.397-5.302
		c0-1.952-0.518-3.719-1.553-5.302c-1.035-1.581-2.492-2.698-4.37-3.35C410.377,171.741,407.264,171.415,402.916,171.415z"/>
	<path fill="#FFFFFF" d="M445.994,163.873h35.137v7.896h-26.264v18.899h25.377v7.941h-25.377v19.255h27.106v7.896h-35.979V163.873z"
		/>
	<path fill="#FFFFFF" d="M516.756,163.873h33.052v7.896h-24.179v17.303h24.179v7.896h-24.179v28.882h-8.873V163.873z"/>
	<path fill="#FFFFFF" d="M574.565,163.519h6.235l27.79,62.332h-9.081l-8.261-18.367h-26.442l-7.744,18.367h-9.118L574.565,163.519z
		 M587.602,199.587l-9.999-22.449l-9.273,22.449H587.602z"/>
	<path fill="#FFFFFF" d="M665.155,211.477v9.76c-6.507,3.55-14.019,5.324-22.537,5.324c-6.921,0-12.792-1.39-17.612-4.17
		c-4.821-2.78-8.637-6.61-11.446-11.491c-2.811-4.88-4.215-10.159-4.215-15.838c0-9.02,3.217-16.607,9.649-22.759
		c6.433-6.151,14.366-9.229,23.802-9.229c6.506,0,13.737,1.701,21.694,5.103v9.538c-7.247-4.141-14.33-6.211-21.251-6.211
		c-7.099,0-12.992,2.24-17.68,6.721c-4.688,4.482-7.031,10.094-7.031,16.837c0,6.803,2.307,12.393,6.921,16.77
		c4.614,4.378,10.515,6.566,17.701,6.566C650.663,218.398,657.997,216.091,665.155,211.477z"/>
	<path fill="#FFFFFF" d="M676.158,163.873h8.873v61.978h-8.873V163.873z"/>
	<path fill="#FFFFFF" d="M748.029,163.873h8.429v61.978h-7.63l-41.438-47.732v47.732h-8.34v-61.978h7.187l41.792,48.138V163.873z"/>
	<path fill="#FFFFFF" d="M803.219,195.328h20.808v26.264c-7.631,3.312-15.203,4.969-22.715,4.969
		c-10.264,0-18.464-2.995-24.601-8.984c-6.138-5.989-9.205-13.376-9.205-22.16c0-9.257,3.179-16.962,9.538-23.113
		c6.358-6.151,14.33-9.229,23.912-9.229c3.49,0,6.803,0.377,9.938,1.132c3.135,0.754,7.098,2.137,11.89,4.147v9.051
		c-7.395-4.288-14.729-6.433-22.005-6.433c-6.773,0-12.482,2.307-17.125,6.921c-4.644,4.613-6.965,10.277-6.965,16.991
		c0,7.04,2.321,12.793,6.965,17.258c4.643,4.467,10.618,6.699,17.924,6.699c3.549,0,7.792-0.812,12.732-2.439l0.843-0.267v-12.91
		h-11.935V195.328z"/>
	<path fill="#FFFFFF" d="M122.354,272.815h51.773v7.897h-21.605v54.169h-8.917v-54.169h-21.251V272.815z"/>
	<path fill="#FFFFFF" d="M226.211,272.903h8.873v61.978h-8.873v-26.974h-34.826v26.974h-8.873v-61.978h8.873v26.796h34.826V272.903z
		"/>
	<path fill="#FFFFFF" d="M248.837,272.903h8.873v61.978h-8.873V272.903z"/>
	<path fill="#FFFFFF" d="M286.814,308.913l-6.744-4.097c-4.229-2.583-7.238-5.124-9.027-7.623c-1.79-2.499-2.685-5.375-2.685-8.629
		c0-4.881,1.692-8.844,5.08-11.89c3.386-3.046,7.786-4.57,13.198-4.57c5.176,0,9.923,1.453,14.241,4.359v10.07
		c-4.467-4.296-9.273-6.443-14.419-6.443c-2.898,0-5.279,0.67-7.143,2.011c-1.863,1.341-2.795,3.056-2.795,5.147
		c0,1.857,0.686,3.595,2.059,5.215c1.373,1.621,3.58,3.322,6.622,5.104l6.776,4.01c7.56,4.516,11.339,10.263,11.339,17.243
		c0,4.969-1.663,9.006-4.99,12.111c-3.328,3.105-7.653,4.658-12.977,4.658c-6.123,0-11.698-1.882-16.726-5.645v-11.269
		c4.791,6.071,10.337,9.105,16.637,9.105c2.779,0,5.094-0.773,6.942-2.32c1.849-1.548,2.773-3.485,2.773-5.814
		C294.977,315.876,292.255,312.298,286.814,308.913z"/>
	<path fill="#FFFFFF" d="M405.913,272.903h8.849l-25.057,62.244h-1.949l-20.265-50.398l-20.475,50.398h-1.904l-24.98-62.244h8.94
		l17.079,42.724l17.194-42.724h8.388l17.274,42.724L405.913,272.903z"/>
	<path fill="#FFFFFF" d="M434.151,272.549h6.235l27.79,62.332h-9.081l-8.261-18.367h-26.442l-7.744,18.367h-9.118L434.151,272.549z
		 M447.188,308.617l-9.999-22.449l-9.273,22.449H447.188z"/>
	<path fill="#FFFFFF" d="M502.259,272.903h10.771l-22.892,29.192v32.785h-9.095v-32.785l-22.893-29.192h10.711l16.587,21.367
		L502.259,272.903z"/>
</g>
<rect x="93.358" y="886.753" fill="#00A0E9" width="758.725" height="270.551"/>
<g>
	<g>
		<path fill="#FFFFFF" d="M142.983,976.084l-6.744-4.097c-4.23-2.583-7.238-5.124-9.027-7.623c-1.79-2.499-2.685-5.375-2.685-8.629
			c0-4.881,1.692-8.844,5.08-11.89c3.386-3.046,7.786-4.57,13.198-4.57c5.176,0,9.923,1.453,14.241,4.359v10.07
			c-4.467-4.296-9.273-6.443-14.419-6.443c-2.898,0-5.279,0.67-7.143,2.011c-1.863,1.341-2.795,3.056-2.795,5.147
			c0,1.857,0.687,3.595,2.059,5.215c1.373,1.621,3.58,3.322,6.622,5.104l6.776,4.01c7.559,4.516,11.339,10.263,11.339,17.243
			c0,4.969-1.663,9.006-4.99,12.111c-3.328,3.105-7.653,4.658-12.977,4.658c-6.123,0-11.698-1.882-16.726-5.646v-11.268
			c4.791,6.071,10.337,9.105,16.637,9.105c2.779,0,5.094-0.773,6.942-2.32c1.849-1.548,2.773-3.485,2.773-5.814
			C151.146,983.047,148.425,979.469,142.983,976.084z"/>
		<path fill="#FFFFFF" d="M163.968,939.985h51.773v7.897h-21.605v54.169h-8.917v-54.169h-21.251V939.985z"/>
		<path fill="#FFFFFF" d="M234.82,939.72h6.235l27.79,62.332h-9.081l-8.261-18.367h-26.442l-7.744,18.367h-9.118L234.82,939.72z
			 M247.856,975.788l-9.999-22.449l-9.273,22.449H247.856z"/>
		<path fill="#FFFFFF" d="M275.9,1002.052v-61.978h15.527c6.27,0,11.246,1.553,14.929,4.658c3.683,3.105,5.523,7.306,5.523,12.6
			c0,3.608-0.902,6.729-2.706,9.361c-1.805,2.633-4.392,4.599-7.764,5.9c1.98,1.302,3.918,3.076,5.812,5.323
			c1.893,2.248,4.555,6.167,7.985,11.757c2.159,3.52,3.889,6.167,5.19,7.941l3.283,4.437h-10.559l-2.703-4.084
			c-0.088-0.147-0.266-0.399-0.531-0.755l-1.728-2.441l-2.747-4.527l-2.968-4.838c-1.832-2.545-3.51-4.57-5.035-6.076
			c-1.524-1.506-2.902-2.591-4.131-3.255c-1.228-0.664-3.294-0.997-6.195-0.997h-2.31v26.974H275.9z M287.435,947.616h-2.661v19.565
			h3.371c4.496,0,7.579-0.384,9.25-1.153c1.671-0.768,2.973-1.93,3.904-3.482c0.932-1.553,1.397-3.319,1.397-5.302
			c0-1.952-0.518-3.719-1.553-5.302c-1.035-1.581-2.492-2.698-4.37-3.35C294.896,947.942,291.782,947.616,287.435,947.616z"/>
		<path fill="#FFFFFF" d="M317.07,939.985h51.773v7.897h-21.605v54.169h-8.917v-54.169H317.07V939.985z"/>
		<path fill="#FFFFFF" d="M451.762,940.074h8.297v61.978h-8.918v-48.225l-19.055,23.957h-1.642l-19.276-23.957v48.225h-8.873
			v-61.978h8.4l20.595,25.454L451.762,940.074z"/>
		<path fill="#FFFFFF" d="M503.823,939.187c9.576,0,17.549,3.032,23.919,9.095c6.369,6.063,9.555,13.665,9.555,22.804
			c0,9.14-3.215,16.703-9.644,22.692c-6.429,5.989-14.534,8.984-24.317,8.984c-9.34,0-17.121-2.995-23.343-8.984
			c-6.222-5.989-9.332-13.493-9.332-22.515c0-9.257,3.132-16.918,9.398-22.981C486.325,942.219,494.247,939.187,503.823,939.187z
			 M504.178,947.616c-7.092,0-12.92,2.219-17.485,6.654c-4.565,4.436-6.849,10.101-6.849,16.992c0,6.685,2.29,12.244,6.871,16.681
			c4.579,4.436,10.312,6.655,17.197,6.655c6.914,0,12.684-2.263,17.309-6.788c4.624-4.525,6.937-10.159,6.937-16.902
			c0-6.566-2.312-12.09-6.937-16.57C516.596,949.856,510.915,947.616,504.178,947.616z"/>
		<path fill="#FFFFFF" d="M583.827,940.074h8.837l-26.204,62.244h-2.01l-26.71-62.244h8.932l18.641,43.521L583.827,940.074z"/>
		<path fill="#FFFFFF" d="M599.54,940.074h8.873v61.978h-8.873V940.074z"/>
		<path fill="#FFFFFF" d="M671.411,940.074h8.429v61.978h-7.63l-41.438-47.733v47.733h-8.34v-61.978h7.186l41.792,48.138V940.074z"
			/>
		<path fill="#FFFFFF" d="M726.601,971.529h20.808v26.264c-7.631,3.312-15.203,4.969-22.715,4.969
			c-10.264,0-18.464-2.995-24.601-8.984c-6.138-5.989-9.205-13.376-9.205-22.16c0-9.257,3.179-16.962,9.538-23.113
			c6.358-6.151,14.33-9.229,23.912-9.229c3.49,0,6.803,0.377,9.939,1.132c3.135,0.754,7.098,2.137,11.89,4.147v9.051
			c-7.395-4.288-14.729-6.433-22.005-6.433c-6.773,0-12.482,2.307-17.125,6.921c-4.643,4.613-6.965,10.277-6.965,16.991
			c0,7.04,2.321,12.793,6.965,17.258c4.643,4.467,10.618,6.699,17.923,6.699c3.55,0,7.793-0.812,12.733-2.44l0.843-0.267v-12.91
			h-11.935V971.529z"/>
		<path fill="#FFFFFF" d="M122.354,1049.016h51.773v7.897h-21.605v54.169h-8.917v-54.169h-21.251V1049.016z"/>
		<path fill="#FFFFFF" d="M226.211,1049.104h8.873v61.978h-8.873v-26.974h-34.826v26.974h-8.873v-61.978h8.873v26.796h34.826
			V1049.104z"/>
		<path fill="#FFFFFF" d="M248.837,1049.104h8.873v61.978h-8.873V1049.104z"/>
		<path fill="#FFFFFF" d="M286.814,1085.114l-6.744-4.097c-4.229-2.583-7.238-5.124-9.027-7.623
			c-1.79-2.499-2.685-5.375-2.685-8.629c0-4.881,1.692-8.844,5.08-11.89c3.386-3.046,7.786-4.57,13.198-4.57
			c5.176,0,9.923,1.453,14.241,4.359v10.07c-4.467-4.296-9.273-6.443-14.419-6.443c-2.898,0-5.279,0.67-7.143,2.011
			s-2.795,3.056-2.795,5.147c0,1.856,0.686,3.595,2.059,5.215c1.373,1.621,3.58,3.322,6.622,5.104l6.776,4.01
			c7.56,4.516,11.339,10.263,11.339,17.243c0,4.969-1.663,9.006-4.99,12.111c-3.328,3.105-7.653,4.658-12.977,4.658
			c-6.123,0-11.698-1.882-16.726-5.646v-11.269c4.791,6.071,10.337,9.105,16.637,9.105c2.779,0,5.094-0.773,6.942-2.32
			c1.849-1.548,2.773-3.485,2.773-5.813C294.977,1092.077,292.255,1088.499,286.814,1085.114z"/>
		<path fill="#FFFFFF" d="M405.913,1049.104h8.849l-25.057,62.244h-1.949l-20.265-50.398l-20.475,50.398h-1.904l-24.98-62.244h8.94
			l17.079,42.724l17.194-42.724h8.388l17.274,42.724L405.913,1049.104z"/>
		<path fill="#FFFFFF" d="M434.151,1048.75h6.235l27.79,62.332h-9.081l-8.261-18.367h-26.442l-7.744,18.367h-9.118L434.151,1048.75z
			 M447.188,1084.818l-9.999-22.449l-9.273,22.449H447.188z"/>
		<path fill="#FFFFFF" d="M502.259,1049.104h10.771l-22.892,29.192v32.785h-9.095v-32.785l-22.893-29.192h10.711l16.587,21.367
			L502.259,1049.104z"/>
	</g>
</g>
</svg>
